<svg width="219" height="50" viewBox="0 0 219 50" fill="none" xmlns="http://www.w3.org/2000/svg">
<path d="M19.2106 19V4.45455H24.1254C25.2665 4.45455 26.1992 4.66051 26.9237 5.07244C27.6528 5.47964 28.1926 6.03125 28.543 6.72727C28.8933 7.4233 29.0685 8.19981 29.0685 9.05682C29.0685 9.91383 28.8933 10.6927 28.543 11.3935C28.1973 12.0942 27.6623 12.6529 26.9379 13.0696C26.2134 13.4815 25.2854 13.6875 24.1538 13.6875H20.631V12.125H24.0969C24.8782 12.125 25.5056 11.9901 25.979 11.7202C26.4525 11.4503 26.7958 11.0857 27.0089 10.6264C27.2267 10.1624 27.3356 9.6392 27.3356 9.05682C27.3356 8.47443 27.2267 7.9536 27.0089 7.49432C26.7958 7.03504 26.4502 6.67519 25.9719 6.41477C25.4937 6.14962 24.8593 6.01705 24.0685 6.01705H20.9719V19H19.2106ZM31.0181 19H29.1715L34.5124 4.45455H36.3306L41.6715 19H39.8249L35.4783 6.75568H35.3647L31.0181 19ZM31.6999 13.3182H39.1431V14.8807H31.6999V13.3182ZM53.4826 4.45455H55.244V14.0852C55.244 15.0795 55.0096 15.9673 54.5408 16.7486C54.0768 17.5251 53.421 18.1383 52.5735 18.5881C51.726 19.0331 50.7317 19.2557 49.5906 19.2557C48.4495 19.2557 47.4551 19.0331 46.6076 18.5881C45.7601 18.1383 45.1019 17.5251 44.6332 16.7486C44.1692 15.9673 43.9371 15.0795 43.9371 14.0852V4.45455H45.6985V13.9432C45.6985 14.6534 45.8548 15.2855 46.1673 15.8395C46.4798 16.3887 46.9248 16.822 47.5025 17.1392C48.0849 17.4517 48.7809 17.608 49.5906 17.608C50.4002 17.608 51.0962 17.4517 51.6786 17.1392C52.261 16.822 52.7061 16.3887 53.0138 15.8395C53.3263 15.2855 53.4826 14.6534 53.4826 13.9432V4.45455ZM2.25746 28.4545H4.35973L9.30291 40.5284H9.47337L14.4165 28.4545H16.5188V43H14.8711V31.9489H14.729L10.1836 43H8.59268L4.04723 31.9489H3.90518V43H2.25746V28.4545ZM20.0504 43V28.4545H28.8288V30.017H21.8118V34.9318H28.3743V36.4943H21.8118V41.4375H28.9425V43H20.0504ZM32.0036 43V28.4545H40.782V30.017H33.7649V34.9318H40.3274V36.4943H33.7649V41.4375H40.8956V43H32.0036ZM43.9567 43V28.4545H45.718V34.9318H53.4737V28.4545H55.2351V43H53.4737V36.4943H45.718V43H43.9567Z" fill="black"/>
<path d="M118.705 10C118.548 9.52178 118.342 9.09328 118.087 8.71449C117.836 8.33097 117.535 8.00426 117.185 7.73438C116.839 7.46449 116.446 7.25852 116.006 7.11648C115.565 6.97443 115.082 6.90341 114.557 6.90341C113.695 6.90341 112.911 7.12595 112.206 7.57102C111.5 8.0161 110.939 8.67188 110.523 9.53835C110.106 10.4048 109.898 11.4678 109.898 12.7273C109.898 13.9867 110.108 15.0497 110.53 15.9162C110.951 16.7827 111.522 17.4384 112.241 17.8835C112.961 18.3286 113.771 18.5511 114.67 18.5511C115.504 18.5511 116.238 18.3736 116.872 18.0185C117.511 17.6586 118.009 17.152 118.364 16.4986C118.723 15.8404 118.903 15.0663 118.903 14.1761L119.443 14.2898H115.068V12.7273H120.608V14.2898C120.608 15.4877 120.352 16.5294 119.841 17.4148C119.334 18.3002 118.634 18.9867 117.739 19.4744C116.848 19.9574 115.826 20.1989 114.67 20.1989C113.383 20.1989 112.251 19.8958 111.276 19.2898C110.305 18.6837 109.547 17.822 109.003 16.7045C108.463 15.5871 108.193 14.2614 108.193 12.7273C108.193 11.5767 108.347 10.5421 108.655 9.62358C108.967 8.70028 109.408 7.9143 109.976 7.26562C110.544 6.61695 111.216 6.11979 111.993 5.77415C112.769 5.4285 113.624 5.25568 114.557 5.25568C115.324 5.25568 116.039 5.37169 116.702 5.60369C117.369 5.83097 117.964 6.1553 118.484 6.5767C119.01 6.99337 119.448 7.4929 119.798 8.07528C120.149 8.65294 120.39 9.29451 120.523 10H118.705ZM123.625 20V5.45455H128.539C129.676 5.45455 130.609 5.64867 131.338 6.03693C132.067 6.42045 132.607 6.94839 132.957 7.62074C133.307 8.29309 133.483 9.05777 133.483 9.91477C133.483 10.7718 133.307 11.5317 132.957 12.1946C132.607 12.8575 132.069 13.3783 131.345 13.7571C130.62 14.1312 129.695 14.3182 128.568 14.3182H124.591V12.7273H128.511C129.288 12.7273 129.913 12.6136 130.386 12.3864C130.864 12.1591 131.21 11.8371 131.423 11.4205C131.641 10.9991 131.75 10.4972 131.75 9.91477C131.75 9.33239 131.641 8.82339 131.423 8.38778C131.205 7.95218 130.857 7.616 130.379 7.37926C129.901 7.13778 129.269 7.01705 128.483 7.01705H125.386V20H123.625ZM130.471 13.4659L134.051 20H132.005L128.483 13.4659H130.471ZM137.014 20H135.168L140.509 5.45455H142.327L147.668 20H145.821L141.474 7.75568H141.361L137.014 20ZM137.696 14.3182H145.139V15.8807H137.696V14.3182ZM154.422 20H149.933V5.45455H154.621C156.032 5.45455 157.239 5.74574 158.243 6.32812C159.247 6.90578 160.016 7.73674 160.551 8.82102C161.086 9.90057 161.354 11.1932 161.354 12.6989C161.354 14.214 161.084 15.5185 160.544 16.6122C160.004 17.7012 159.218 18.5393 158.186 19.1264C157.154 19.7088 155.899 20 154.422 20ZM151.695 18.4375H154.308C155.511 18.4375 156.508 18.2055 157.298 17.7415C158.089 17.2775 158.679 16.617 159.067 15.7599C159.455 14.9029 159.649 13.8826 159.649 12.6989C159.649 11.5246 159.457 10.5137 159.074 9.66619C158.69 8.81392 158.117 8.16051 157.355 7.70597C156.593 7.24669 155.643 7.01705 154.507 7.01705H151.695V18.4375ZM173.854 5.45455H175.615V15.0852C175.615 16.0795 175.381 16.9673 174.912 17.7486C174.448 18.5251 173.792 19.1383 172.945 19.5881C172.097 20.0331 171.103 20.2557 169.962 20.2557C168.821 20.2557 167.826 20.0331 166.979 19.5881C166.131 19.1383 165.473 18.5251 165.004 17.7486C164.54 16.9673 164.308 16.0795 164.308 15.0852V5.45455H166.07V14.9432C166.07 15.6534 166.226 16.2855 166.538 16.8395C166.851 17.3887 167.296 17.822 167.874 18.1392C168.456 18.4517 169.152 18.608 169.962 18.608C170.771 18.608 171.467 18.4517 172.05 18.1392C172.632 17.822 173.077 17.3887 173.385 16.8395C173.697 16.2855 173.854 15.6534 173.854 14.9432V5.45455ZM179.729 20H177.882L183.223 5.45455H185.042L190.382 20H188.536L184.189 7.75568H184.076L179.729 20ZM180.411 14.3182H187.854V15.8807H180.411V14.3182ZM190.153 7.01705V5.45455H201.062V7.01705H196.489V20H194.727V7.01705H190.153ZM203.781 20V5.45455H212.559V7.01705H205.542V11.9318H212.105V13.4943H205.542V18.4375H212.673V20H203.781ZM116.716 33.0909C116.631 32.3712 116.285 31.8125 115.679 31.4148C115.073 31.017 114.33 30.8182 113.449 30.8182C112.805 30.8182 112.241 30.9223 111.759 31.1307C111.28 31.339 110.906 31.6255 110.636 31.9901C110.371 32.3546 110.239 32.7689 110.239 33.233C110.239 33.6212 110.331 33.955 110.516 34.2344C110.705 34.509 110.946 34.7386 111.24 34.9233C111.534 35.1032 111.841 35.2524 112.163 35.3707C112.485 35.4844 112.781 35.5767 113.051 35.6477L114.528 36.0455C114.907 36.1449 115.329 36.2822 115.793 36.4574C116.261 36.6326 116.709 36.8717 117.135 37.1747C117.566 37.473 117.921 37.8565 118.2 38.3253C118.48 38.794 118.619 39.3693 118.619 40.0511C118.619 40.8371 118.413 41.5473 118.001 42.1818C117.594 42.8163 116.998 43.3205 116.212 43.6946C115.43 44.0687 114.481 44.2557 113.364 44.2557C112.322 44.2557 111.42 44.0876 110.658 43.7514C109.9 43.4152 109.304 42.9465 108.868 42.3452C108.437 41.7438 108.193 41.0455 108.136 40.25H109.955C110.002 40.7992 110.187 41.2538 110.509 41.6136C110.835 41.9687 111.247 42.2339 111.744 42.4091C112.246 42.5795 112.786 42.6648 113.364 42.6648C114.036 42.6648 114.64 42.5559 115.175 42.3381C115.71 42.1155 116.134 41.8078 116.446 41.4148C116.759 41.017 116.915 40.553 116.915 40.0227C116.915 39.5398 116.78 39.1468 116.51 38.8438C116.24 38.5407 115.885 38.2945 115.445 38.1051C115.004 37.9157 114.528 37.75 114.017 37.608L112.227 37.0966C111.091 36.7699 110.191 36.3035 109.528 35.6974C108.866 35.0914 108.534 34.2983 108.534 33.3182C108.534 32.5038 108.754 31.7936 109.195 31.1875C109.64 30.5767 110.236 30.1032 110.984 29.767C111.737 29.4261 112.578 29.2557 113.506 29.2557C114.443 29.2557 115.277 29.4238 116.006 29.7599C116.735 30.0914 117.313 30.5459 117.739 31.1236C118.17 31.7012 118.397 32.357 118.42 33.0909H116.716ZM133.22 34H131.458C131.354 33.4934 131.172 33.0483 130.912 32.6648C130.656 32.2812 130.343 31.9593 129.974 31.6989C129.609 31.4337 129.205 31.2348 128.76 31.1023C128.315 30.9697 127.85 30.9034 127.368 30.9034C126.487 30.9034 125.689 31.1259 124.974 31.571C124.264 32.0161 123.698 32.6719 123.277 33.5384C122.86 34.4048 122.652 35.4678 122.652 36.7273C122.652 37.9867 122.86 39.0497 123.277 39.9162C123.698 40.7827 124.264 41.4384 124.974 41.8835C125.689 42.3286 126.487 42.5511 127.368 42.5511C127.85 42.5511 128.315 42.4848 128.76 42.3523C129.205 42.2197 129.609 42.0232 129.974 41.7628C130.343 41.4976 130.656 41.1733 130.912 40.7898C131.172 40.4015 131.354 39.9564 131.458 39.4545H133.22C133.087 40.1979 132.846 40.8632 132.495 41.4503C132.145 42.0374 131.709 42.5369 131.189 42.9489C130.668 43.3561 130.083 43.6662 129.434 43.8793C128.79 44.0923 128.101 44.1989 127.368 44.1989C126.127 44.1989 125.024 43.8958 124.058 43.2898C123.092 42.6837 122.332 41.822 121.778 40.7045C121.224 39.5871 120.947 38.2614 120.947 36.7273C120.947 35.1932 121.224 33.8674 121.778 32.75C122.332 31.6326 123.092 30.7708 124.058 30.1648C125.024 29.5587 126.127 29.2557 127.368 29.2557C128.101 29.2557 128.79 29.3622 129.434 29.5753C130.083 29.7884 130.668 30.1009 131.189 30.5128C131.709 30.92 132.145 31.4171 132.495 32.0043C132.846 32.5866 133.087 33.2519 133.22 34ZM136.066 44V29.4545H137.827V35.9318H145.583V29.4545H147.344V44H145.583V37.4943H137.827V44H136.066ZM163.143 36.7273C163.143 38.2614 162.866 39.5871 162.312 40.7045C161.759 41.822 160.999 42.6837 160.033 43.2898C159.067 43.8958 157.964 44.1989 156.723 44.1989C155.482 44.1989 154.379 43.8958 153.413 43.2898C152.447 42.6837 151.688 41.822 151.134 40.7045C150.58 39.5871 150.303 38.2614 150.303 36.7273C150.303 35.1932 150.58 33.8674 151.134 32.75C151.688 31.6326 152.447 30.7708 153.413 30.1648C154.379 29.5587 155.482 29.2557 156.723 29.2557C157.964 29.2557 159.067 29.5587 160.033 30.1648C160.999 30.7708 161.759 31.6326 162.312 32.75C162.866 33.8674 163.143 35.1932 163.143 36.7273ZM161.439 36.7273C161.439 35.4678 161.228 34.4048 160.807 33.5384C160.39 32.6719 159.824 32.0161 159.109 31.571C158.399 31.1259 157.604 30.9034 156.723 30.9034C155.842 30.9034 155.045 31.1259 154.33 31.571C153.619 32.0161 153.054 32.6719 152.632 33.5384C152.215 34.4048 152.007 35.4678 152.007 36.7273C152.007 37.9867 152.215 39.0497 152.632 39.9162C153.054 40.7827 153.619 41.4384 154.33 41.8835C155.045 42.3286 155.842 42.5511 156.723 42.5511C157.604 42.5511 158.399 42.3286 159.109 41.8835C159.824 41.4384 160.39 40.7827 160.807 39.9162C161.228 39.0497 161.439 37.9867 161.439 36.7273ZM178.378 36.7273C178.378 38.2614 178.101 39.5871 177.547 40.7045C176.993 41.822 176.233 42.6837 175.267 43.2898C174.301 43.8958 173.198 44.1989 171.957 44.1989C170.717 44.1989 169.614 43.8958 168.648 43.2898C167.682 42.6837 166.922 41.822 166.368 40.7045C165.814 39.5871 165.537 38.2614 165.537 36.7273C165.537 35.1932 165.814 33.8674 166.368 32.75C166.922 31.6326 167.682 30.7708 168.648 30.1648C169.614 29.5587 170.717 29.2557 171.957 29.2557C173.198 29.2557 174.301 29.5587 175.267 30.1648C176.233 30.7708 176.993 31.6326 177.547 32.75C178.101 33.8674 178.378 35.1932 178.378 36.7273ZM176.673 36.7273C176.673 35.4678 176.463 34.4048 176.041 33.5384C175.625 32.6719 175.059 32.0161 174.344 31.571C173.634 31.1259 172.838 30.9034 171.957 30.9034C171.077 30.9034 170.279 31.1259 169.564 31.571C168.854 32.0161 168.288 32.6719 167.866 33.5384C167.45 34.4048 167.241 35.4678 167.241 36.7273C167.241 37.9867 167.45 39.0497 167.866 39.9162C168.288 40.7827 168.854 41.4384 169.564 41.8835C170.279 42.3286 171.077 42.5511 171.957 42.5511C172.838 42.5511 173.634 42.3286 174.344 41.8835C175.059 41.4384 175.625 40.7827 176.041 39.9162C176.463 39.0497 176.673 37.9867 176.673 36.7273ZM181.339 44V29.4545H183.101V42.4375H189.862V44H181.339Z" fill="black"/>
<rect x="61" y="3" width="2" height="40" fill="black"/>
<rect x="101" y="5" width="2" height="40" fill="black"/>
<path d="M88 3H103V5H88V3Z" fill="black"/>
<rect x="61" y="43" width="15" height="2" fill="black"/>
<rect x="68" y="10" width="28" height="28" fill="#E04141"/>
</svg>
